# xmcd
#
# Track frame offsets: 
#        150
#        15211
#        26065
#        36848
#        58292
#        71693
#        87161
#        96755
#        110488
#        124054
#
# Disc length: 1829 seconds
#
# Revision: 0
# Processed by: cddbd v1.5.2PL0 Copyright (c) Steve Scherf et al.
# Submitted via: ExactAudioCopyFreeDBPlugin 1.0
#
DISCID=7f07230a
DTITLE=Scott, Keith - World Blues
DYEAR=2008
DGENRE=Blues
TTITLE0=Coffeeshop Blues
TTITLE1=Long, Long Journey
TTITLE2=Easy Lil' Girl
TTITLE3=Mean Mistreater
TTITLE4=Goin' Home
TTITLE5=Luck in My Pocket
TTITLE6=Buffalo Swing
TTITLE7=World in Trouble
TTITLE8=Going to Memphis
TTITLE9=Don't Care about Dyin'
EXTD=
EXTT0=
EXTT1=
EXTT2=
EXTT3=
EXTT4=
EXTT5=
EXTT6=
EXTT7=
EXTT8=
EXTT9=
PLAYORDER=
